<svg width="938" height="301" viewBox="0 0 938 301" fill="none" xmlns="http://www.w3.org/2000/svg">
<path d="M97.86 107.132C88.4874 122.414 77.0773 135.861 63.6296 147.475C50.182 159.089 36.5306 167.239 22.6754 171.925C12.4878 175.389 6.17147 175.185 3.72645 171.314C1.89268 168.258 3.82832 163.877 9.53339 158.172C22.166 145.132 33.1686 129.952 42.5412 112.633C51.9139 95.3145 57.9245 78.8106 60.5733 63.1217C56.702 63.7329 53.1364 64.5479 49.8763 65.5667C42.3375 68.2155 34.7987 67.6042 27.2598 63.7329C20.3323 60.4729 15.5441 55.7866 12.8953 49.674C11.6728 46.8215 11.469 44.3765 12.284 42.3389C13.099 40.3014 14.9328 39.5883 17.7853 40.1995C25.3242 42.0333 38.3643 43.3577 56.9058 44.1727C70.7609 44.9877 87.163 44.5802 106.112 42.9502C110.798 42.5427 115.383 41.5239 119.865 39.8939C124.959 38.0601 130.46 37.1433 136.369 37.1433C142.482 37.1433 147.372 38.6714 151.039 41.7277C154.911 44.5802 156.643 48.1459 156.235 52.4247C156.031 55.481 154.503 57.926 151.651 59.7598C148.798 61.5935 145.232 62.3067 140.954 61.8992C135.249 61.2879 127.098 60.7785 116.503 60.371C114.262 73.4112 109.27 86.9607 101.528 101.02C121.699 102.242 138.305 108.151 151.345 118.746C154.809 121.802 157.967 126.081 160.819 131.582C163.876 138.102 164.079 144.826 161.431 151.754C158.986 158.681 154.503 163.673 147.983 166.73C141.463 169.786 134.739 170.092 127.812 167.647C121.088 164.998 115.994 160.413 112.53 153.893C110.289 149.614 109.474 144.215 110.085 137.695C110.696 131.175 110.391 125.979 109.168 122.108C107.131 116.199 103.361 111.207 97.86 107.132ZM231.114 248.027C238.857 248.027 244.867 249.657 249.146 252.917C253.629 256.177 255.564 260.354 254.953 265.448C254.545 268.096 253.017 270.338 250.369 272.171C247.924 274.209 244.46 275.228 239.977 275.228H113.753C86.6536 275.228 73.1041 265.651 73.1041 246.499V219.603C73.1041 214.917 71.9835 210.638 69.7422 206.767C69.1309 205.748 67.8065 203.914 65.769 201.266C63.9352 198.617 62.7127 196.579 62.1015 195.153C61.0827 192.708 61.1846 190.161 62.4071 187.512C63.8334 184.66 66.2784 182.826 69.7422 182.011C75.651 179.974 84.0048 179.77 94.8037 181.4C105.603 182.826 113.243 186.086 117.726 191.18C120.171 193.829 121.393 198.311 121.393 204.628V249.555C121.393 254.853 124.246 257.501 129.951 257.501H177.323H187.409C188.428 257.501 189.956 257.399 191.994 257.196C194.235 256.992 195.865 256.788 196.884 256.584C201.366 256.177 204.524 255.668 206.358 255.056C207.784 254.649 209.72 253.834 212.165 252.611C214.61 251.389 216.546 250.574 217.972 250.166C223.066 248.74 227.446 248.027 231.114 248.027ZM133.924 85.4325C133.72 83.5988 134.128 82.1725 135.147 81.1537C136.369 79.9312 137.897 79.4219 139.731 79.6256C145.029 80.2369 154.605 80.5425 168.46 80.5425C179.463 80.5425 187.409 80.4406 192.299 80.2369V49.3684C192.299 40.8108 191.077 34.3926 188.632 30.1138C184.353 23.39 181.908 19.4168 181.297 18.1943C179.259 13.3042 179.259 9.6367 181.297 7.19167C183.538 4.5429 186.798 3.01476 191.077 2.60725C211.044 1.18099 225.918 5.66354 235.698 16.0549C238.958 19.3149 240.588 24.6125 240.588 31.9476V171.008C240.588 185.067 237.023 195.663 229.891 202.794C222.964 209.925 214.101 213.491 203.302 213.491C199.634 213.491 196.884 212.268 195.05 209.823C193.216 207.175 192.299 204.424 192.299 201.571V96.7408C188.632 97.1483 186.187 97.352 184.964 97.352C181.093 97.5558 176.712 98.2689 171.822 99.4914C171.211 99.6952 168.358 100.51 163.264 101.936C159.597 102.955 156.337 103.363 153.484 103.159C149.613 102.751 146.149 101.529 143.093 99.4914C142.482 99.0839 141.565 98.2689 140.342 97.0464C136.675 93.7864 134.535 89.9151 133.924 85.4325ZM519.09 147.169C524.184 145.132 529.991 144.113 536.511 144.113C543.031 144.113 548.226 145.743 552.098 149.003C556.173 152.06 558.007 155.727 557.599 160.006C557.395 163.062 555.765 165.609 552.709 167.647C549.653 169.684 545.883 170.601 541.401 170.397C457.455 168.156 390.42 168.971 340.297 172.842C336.222 173.25 331.74 174.269 326.85 175.899C319.107 178.547 311.263 177.936 303.316 174.065C296.185 170.805 291.091 165.609 288.035 158.478C286.609 155.625 286.303 153.282 287.118 151.448C288.137 149.614 290.072 148.901 292.925 149.309C301.686 150.939 315.44 152.161 334.185 152.976C341.112 153.18 361.793 153.282 396.227 153.282V129.443H378.806C351.911 129.443 338.464 119.765 338.464 100.408V60.0654C338.464 55.3791 337.241 51.1003 334.796 47.229C334.185 46.414 332.962 44.784 331.128 42.3389C329.295 39.8939 327.97 37.9583 327.155 36.532C324.303 30.8269 326.34 26.5481 333.268 23.6956C337.75 21.2506 346.002 20.3337 358.024 20.9449C370.045 21.5562 379.01 24.0012 384.919 28.28H425.262H434.736C435.755 28.28 437.283 28.1782 439.321 27.9744C441.358 27.7707 442.887 27.6688 443.905 27.6688C446.35 27.465 449.203 26.8538 452.463 25.835C453.685 25.4275 455.621 24.8162 458.27 24.0012C460.919 22.9825 462.854 22.2693 464.077 21.8618C468.967 20.4356 473.246 19.7224 476.913 19.7224C493.213 19.7224 501.058 24.9181 500.447 35.3095C500.243 37.7545 498.817 39.8939 496.168 41.7277C493.519 43.5615 490.055 44.4783 485.776 44.4783H386.753V69.2342H428.013H437.181C438.2 69.2342 439.627 69.1324 441.46 68.9286C443.294 68.7249 444.72 68.623 445.739 68.623C447.777 68.4192 450.527 67.808 453.991 66.7892C455.417 66.3817 457.353 65.8723 459.798 65.2611C462.243 64.4461 464.077 63.8348 465.299 63.4273C468.967 62.4085 473.246 61.8992 478.136 61.8992C483.637 61.8992 487.916 63.1217 490.972 65.5667C494.232 68.0117 495.76 71.6793 495.557 76.5693C495.353 78.8106 493.825 80.8481 490.972 82.6819C488.12 84.5157 484.554 85.4325 480.275 85.4325H386.753V105.298C386.753 110.596 389.503 113.245 395.005 113.245H429.235C430.865 113.245 432.801 113.245 435.042 113.245C437.487 113.041 438.811 112.939 439.015 112.939C440.034 112.735 441.664 112.633 443.905 112.633C446.147 112.633 447.777 112.532 448.795 112.328C451.852 112.124 454.908 111.513 457.964 110.494C459.187 110.087 461.122 109.373 463.771 108.355C466.42 107.132 468.457 106.317 469.884 105.91C475.589 104.28 479.868 103.465 482.72 103.465C490.463 103.465 496.575 104.993 501.058 108.049C505.54 110.902 507.476 114.875 506.865 119.969C506.457 122.414 504.929 124.655 502.28 126.692C499.835 128.526 496.372 129.443 491.889 129.443H444.517V152.976C467.948 152.773 487.712 152.161 503.808 151.143C507.069 150.939 512.162 149.614 519.09 147.169ZM439.015 188.124C458.575 189.754 473.755 194.746 484.554 203.099C495.556 211.25 501.058 221.947 501.058 235.19C501.058 250.064 494.232 261.678 480.581 270.032C466.929 278.386 447.98 282.563 423.734 282.563C399.487 282.563 380.538 278.386 366.887 270.032C353.236 261.678 346.41 250.064 346.41 235.19C346.41 221.539 352.217 210.536 363.831 202.183C375.648 193.829 391.948 189.041 412.731 187.818C412.324 187.003 411.509 185.781 410.286 184.15C408.249 181.094 407.332 179.057 407.536 178.038C407.943 176 408.86 174.574 410.286 173.759C411.509 173.148 412.833 172.842 414.259 172.842C420.576 172.638 426.281 173.454 431.375 175.287C436.672 177.121 439.728 179.362 440.543 182.011C441.155 184.252 440.645 186.29 439.015 188.124ZM401.729 259.029C406.619 263.92 413.954 266.365 423.734 266.365C433.514 266.365 440.747 263.92 445.433 259.029C450.324 254.139 452.769 246.193 452.769 235.19C452.769 224.188 450.324 216.241 445.433 211.351C440.747 206.258 433.514 203.711 423.734 203.711C413.954 203.711 406.619 206.258 401.729 211.351C397.042 216.241 394.699 224.188 394.699 235.19C394.699 246.193 397.042 254.139 401.729 259.029ZM883.418 54.5641V76.5693H933.541V299.067H894.421V289.287H790.507V300.289H750.164V76.5693H801.51V54.5641H747.719V49.674L724.491 79.0143L680.481 22.7787C687.816 21.5562 694.743 20.9449 701.263 20.9449C720.416 20.9449 735.901 26.65 747.719 38.0601V22.7787H937.209V54.5641H883.418ZM847.965 54.5641H839.407V76.5693H847.965V54.5641ZM717.156 156.033L668.256 96.1295C675.591 94.092 683.13 93.0732 690.872 93.0732C710.636 93.0732 728.363 100.205 744.051 114.467L717.156 156.033ZM894.421 208.601V196.376H879.75C859.986 192.912 849.391 179.872 847.965 157.255V105.91H839.407V127.915C837.777 164.794 821.477 189.346 790.507 201.571V208.601H894.421ZM790.507 105.91V186.29C798.25 161.432 801.917 134.639 801.51 105.91H790.507ZM883.418 105.91V157.255H894.421V105.91H883.418ZM744.051 137.695C744.866 194.542 729.381 248.74 697.596 300.289L673.146 244.054C697.392 211.25 719.805 175.797 740.384 137.695H744.051ZM894.421 240.386H790.507V257.501H894.421V240.386Z" fill="#312E28"/>
</svg>
